<?xml version="1.0" encoding="UTF-8" standalone="no"?>
<svg
   version="1.1"
   id="Layer_1"
   x="0px"
   y="0px"
   width="122.878px"
   height="122.88px"
   viewBox="0 0 122.878 122.88"
   enable-background="new 0 0 122.878 122.88"
   xml:space="preserve"
   sodipodi:docname="delete.svg"
   inkscape:version="1.2.1 (9c6d41e410, 2022-07-14)"
   xmlns:inkscape="http://www.inkscape.org/namespaces/inkscape"
   xmlns:sodipodi="http://sodipodi.sourceforge.net/DTD/sodipodi-0.dtd"
   xmlns="http://www.w3.org/2000/svg"
   xmlns:svg="http://www.w3.org/2000/svg"><defs
     id="defs76" /><sodipodi:namedview
     id="namedview74"
     pagecolor="#505050"
     bordercolor="#eeeeee"
     borderopacity="1"
     inkscape:showpageshadow="0"
     inkscape:pageopacity="0"
     inkscape:pagecheckerboard="0"
     inkscape:deskcolor="#505050"
     showgrid="false"
     inkscape:zoom="7.0882163"
     inkscape:cx="61.439999"
     inkscape:cy="72.796876"
     inkscape:window-width="1914"
     inkscape:window-height="1039"
     inkscape:window-x="0"
     inkscape:window-y="35"
     inkscape:window-maximized="1"
     inkscape:current-layer="g71" /><g
     id="g71"><path
       d="M1.426,8.313c-1.901-1.901-1.901-4.984,0-6.886c1.901-1.902,4.984-1.902,6.886,0l53.127,53.127l53.127-53.127 c1.901-1.902,4.984-1.902,6.887,0c1.901,1.901,1.901,4.985,0,6.886L68.324,61.439l53.128,53.128c1.901,1.901,1.901,4.984,0,6.886 c-1.902,1.902-4.985,1.902-6.887,0L61.438,68.326L8.312,121.453c-1.901,1.902-4.984,1.902-6.886,0 c-1.901-1.901-1.901-4.984,0-6.886l53.127-53.128L1.426,8.313L1.426,8.313z"
       id="path69"
       style="fill:#e79d93;fill-opacity:1" /></g></svg>
