<?xml version="1.0" encoding="UTF-8" standalone="no"?>
<svg
   id="Layer_1"
   data-name="Layer 1"
   viewBox="0 0 97.25 122.88"
   version="1.1"
   sodipodi:docname="favicon.svg"
   inkscape:version="1.2.1 (9c6d41e410, 2022-07-14)"
   xmlns:inkscape="http://www.inkscape.org/namespaces/inkscape"
   xmlns:sodipodi="http://sodipodi.sourceforge.net/DTD/sodipodi-0.dtd"
   xmlns="http://www.w3.org/2000/svg"
   xmlns:svg="http://www.w3.org/2000/svg"
   xmlns:rdf="http://www.w3.org/1999/02/22-rdf-syntax-ns#"
   xmlns:cc="http://creativecommons.org/ns#"
   xmlns:dc="http://purl.org/dc/elements/1.1/">
  <defs
     id="defs4272" />
  <sodipodi:namedview
     id="namedview4270"
     pagecolor="#505050"
     bordercolor="#eeeeee"
     borderopacity="1"
     inkscape:showpageshadow="0"
     inkscape:pageopacity="0"
     inkscape:pagecheckerboard="0"
     inkscape:deskcolor="#505050"
     showgrid="false"
     inkscape:zoom="7.0882163"
     inkscape:cx="15.166016"
     inkscape:cy="61.510538"
     inkscape:window-width="1914"
     inkscape:window-height="1039"
     inkscape:window-x="0"
     inkscape:window-y="35"
     inkscape:window-maximized="1"
     inkscape:current-layer="Layer_1" />
  <title
     id="title4265">notepad</title>
  <path
     d="M9.28,8.23h8.55V2.85a2.86,2.86,0,0,1,5.71,0V8.23H36.09V2.85a2.85,2.85,0,0,1,5.7,0V8.23H54.34V2.85a2.86,2.86,0,0,1,5.71,0V8.23H72.6V2.85a2.85,2.85,0,1,1,5.7,0V8.23H88a9.29,9.29,0,0,1,9.27,9.28V113.6A9.32,9.32,0,0,1,88,122.88H9.28A9.3,9.3,0,0,1,0,113.6V17.51A9.29,9.29,0,0,1,9.28,8.23Zm12,90.31a2.77,2.77,0,0,1,0-5.54H76a2.77,2.77,0,0,1,0,5.54Zm0-18.26a2.77,2.77,0,0,1,0-5.53H76a2.77,2.77,0,0,1,0,5.53Zm0-18.25a2.77,2.77,0,0,1,0-5.54H76A2.77,2.77,0,0,1,76,62Zm0-18.26a2.77,2.77,0,0,1,0-5.53H76a2.77,2.77,0,0,1,0,5.53Zm57.06-30v5.38a2.85,2.85,0,1,1-5.7,0V13.76H60.05v5.38a2.86,2.86,0,0,1-5.71,0V13.76H41.79v5.38a2.85,2.85,0,0,1-5.7,0V13.76H23.54v5.38a2.86,2.86,0,0,1-5.71,0V13.76H9.28a3.7,3.7,0,0,0-2.64,1.1,3.75,3.75,0,0,0-1.11,2.65V113.6a3.79,3.79,0,0,0,3.75,3.75H88a3.76,3.76,0,0,0,3.74-3.75V17.51A3.76,3.76,0,0,0,88,13.76Z"
     id="path4267"
     style="fill:#eeecec;fill-opacity:1" />
  <metadata
     id="metadata4861">
    <rdf:RDF>
      <cc:Work
         rdf:about="">
        <dc:title>notepad</dc:title>
      </cc:Work>
    </rdf:RDF>
  </metadata>
</svg>
